<svg xmlns="http://www.w3.org/2000/svg" viewBox="0 0 1120 830" font-family="Arial Rounded MT Bold,Arial Rounded MT,SF Pro Rounded,Helvetica Rounded,Nunito,Helvetica,Arial,sans-serif" style="max-width:100%;height:auto">
<defs><pattern id="hx" width="9" height="9" patternUnits="userSpaceOnUse" patternTransform="rotate(45)"><line x1="0" y1="0" x2="0" y2="9" stroke="#ffffff" stroke-width="3" opacity="0.30"/></pattern></defs>
<rect width="1120" height="830" fill="#ffffff"/>
<rect x="14" y="12" width="542" height="396" rx="22" fill="#e8f6e6" stroke="#4faa6a" stroke-width="5"/>
<text x="285.0" y="64" font-size="30" fill="#141414" text-anchor="middle" font-family="Arial Rounded MT Bold,Arial Rounded MT,SF Pro Rounded,Helvetica Rounded,Nunito,Helvetica,Arial,sans-serif">(a) Generative Agents</text>
<rect x="38" y="84" width="494" height="234" rx="16" fill="#f4fdf4" stroke="#4faa6a" stroke-width="3.4" stroke-dasharray="12 9" stroke-linecap="round"/>
<text x="285.0" y="118" font-size="21" fill="#141414" text-anchor="middle" font-family="Arial Rounded MT Bold,Arial Rounded MT,SF Pro Rounded,Helvetica Rounded,Nunito,Helvetica,Arial,sans-serif">One Private Stream per Agent</text>
<g transform="translate(106.0,126.0) scale(0.7222)"><g stroke="#141414" stroke-width="3" stroke-linejoin="round" stroke-linecap="round" fill="none"><path d="M36 11 v6"/><circle cx="36" cy="8.5" r="3.4" fill="#f0b429"/><rect x="16" y="17" width="40" height="27" rx="8" fill="#cdd6de"/><path d="M48 17 a8 8 0 0 1 8 8 v11 a8 8 0 0 1 -8 8 z" fill="#aab6c2" stroke="none"/><rect x="16" y="17" width="40" height="27" rx="8"/><circle cx="27" cy="30" r="5" fill="#f0b429"/><circle cx="45" cy="30" r="5" fill="#f0b429"/><circle cx="27" cy="30" r="1.8" fill="#141414" stroke="none"/><circle cx="45" cy="30" r="1.8" fill="#141414" stroke="none"/><rect x="6" y="49" width="9" height="12" rx="4" fill="#aab6c2"/><rect x="57" y="49" width="9" height="12" rx="4" fill="#aab6c2"/><rect x="17" y="47" width="38" height="17" rx="5" fill="#cdd6de"/><rect x="24" y="52" width="24" height="8" rx="2" fill="#eef3f7"/><circle cx="29" cy="56" r="1.5" fill="#f0b429" stroke="none"/><circle cx="36" cy="56" r="1.5" fill="#e0564e" stroke="none"/><circle cx="43" cy="56" r="1.5" fill="#5fc44a" stroke="none"/></g></g>
<text x="180" y="158" font-size="20" fill="#141414" text-anchor="middle" font-family="Arial Rounded MT Bold,Arial Rounded MT,SF Pro Rounded,Helvetica Rounded,Nunito,Helvetica,Arial,sans-serif">A</text>
<rect x="82" y="182" width="144" height="28" rx="8" fill="#ffffff" stroke="#0f8a5f" stroke-width="3"/><text x="154.0" y="202.0" font-size="16" fill="#141414" text-anchor="middle" font-family="Arial Rounded MT Bold,Arial Rounded MT,SF Pro Rounded,Helvetica Rounded,Nunito,Helvetica,Arial,sans-serif">e</text>
<rect x="82" y="218" width="144" height="28" rx="8" fill="#ffffff" stroke="#0f8a5f" stroke-width="3"/><text x="154.0" y="238.0" font-size="16" fill="#141414" text-anchor="middle" font-family="Arial Rounded MT Bold,Arial Rounded MT,SF Pro Rounded,Helvetica Rounded,Nunito,Helvetica,Arial,sans-serif">&#8230;</text>
<rect x="82" y="262" width="144" height="28" rx="8" fill="#d6f5e6" stroke="#0f8a5f" stroke-width="3" stroke-dasharray="7 5"/><text x="154.0" y="282.0" font-size="14" fill="#141414" text-anchor="middle" font-family="Arial Rounded MT Bold,Arial Rounded MT,SF Pro Rounded,Helvetica Rounded,Nunito,Helvetica,Arial,sans-serif">reflection</text>
<g transform="translate(368.0,126.0) scale(0.7222)"><g stroke="#141414" stroke-width="3" stroke-linejoin="round" stroke-linecap="round" fill="none"><path d="M36 11 v6"/><circle cx="36" cy="8.5" r="3.4" fill="#f0b429"/><rect x="16" y="17" width="40" height="27" rx="8" fill="#cdd6de"/><path d="M48 17 a8 8 0 0 1 8 8 v11 a8 8 0 0 1 -8 8 z" fill="#aab6c2" stroke="none"/><rect x="16" y="17" width="40" height="27" rx="8"/><circle cx="27" cy="30" r="5" fill="#f0b429"/><circle cx="45" cy="30" r="5" fill="#f0b429"/><circle cx="27" cy="30" r="1.8" fill="#141414" stroke="none"/><circle cx="45" cy="30" r="1.8" fill="#141414" stroke="none"/><rect x="6" y="49" width="9" height="12" rx="4" fill="#aab6c2"/><rect x="57" y="49" width="9" height="12" rx="4" fill="#aab6c2"/><rect x="17" y="47" width="38" height="17" rx="5" fill="#cdd6de"/><rect x="24" y="52" width="24" height="8" rx="2" fill="#eef3f7"/><circle cx="29" cy="56" r="1.5" fill="#f0b429" stroke="none"/><circle cx="36" cy="56" r="1.5" fill="#e0564e" stroke="none"/><circle cx="43" cy="56" r="1.5" fill="#5fc44a" stroke="none"/></g></g>
<text x="442" y="158" font-size="20" fill="#141414" text-anchor="middle" font-family="Arial Rounded MT Bold,Arial Rounded MT,SF Pro Rounded,Helvetica Rounded,Nunito,Helvetica,Arial,sans-serif">B</text>
<rect x="344" y="182" width="144" height="28" rx="8" fill="#ffffff" stroke="#0f8a5f" stroke-width="3"/><text x="416.0" y="202.0" font-size="16" fill="#141414" text-anchor="middle" font-family="Arial Rounded MT Bold,Arial Rounded MT,SF Pro Rounded,Helvetica Rounded,Nunito,Helvetica,Arial,sans-serif">e</text>
<rect x="344" y="218" width="144" height="28" rx="8" fill="#ffffff" stroke="#0f8a5f" stroke-width="3"/><text x="416.0" y="238.0" font-size="16" fill="#141414" text-anchor="middle" font-family="Arial Rounded MT Bold,Arial Rounded MT,SF Pro Rounded,Helvetica Rounded,Nunito,Helvetica,Arial,sans-serif">&#8230;</text>
<rect x="344" y="262" width="144" height="28" rx="8" fill="#d6f5e6" stroke="#0f8a5f" stroke-width="3" stroke-dasharray="7 5"/><text x="416.0" y="282.0" font-size="14" fill="#141414" text-anchor="middle" font-family="Arial Rounded MT Bold,Arial Rounded MT,SF Pro Rounded,Helvetica Rounded,Nunito,Helvetica,Arial,sans-serif">reflection</text>
<g transform="translate(265.0,204.0) scale(0.5556)"><circle cx="36" cy="36" r="24" fill="#ffffff" stroke="#d33a3a" stroke-width="6.5"/><path d="M19 19 L53 53" stroke="#d33a3a" stroke-width="6.5" stroke-linecap="round"/></g>
<text x="285" y="268" font-size="15" fill="#141414" text-anchor="middle" font-family="Arial Rounded MT Bold,Arial Rounded MT,SF Pro Rounded,Helvetica Rounded,Nunito,Helvetica,Arial,sans-serif">no link</text>
<text x="285" y="356" font-size="21" fill="#141414" text-anchor="middle" font-family="Arial Rounded MT Bold,Arial Rounded MT,SF Pro Rounded,Helvetica Rounded,Nunito,Helvetica,Arial,sans-serif">One Copy per Witness</text>
<text x="285" y="384" font-size="15" fill="#5b6470" text-anchor="middle" font-family="Arial Rounded MT Bold,Arial Rounded MT,SF Pro Rounded,Helvetica Rounded,Nunito,Helvetica,Arial,sans-serif">recency × importance × relevance</text>
<rect x="564" y="12" width="542" height="396" rx="22" fill="#fbead6" stroke="#e0a05a" stroke-width="5"/>
<text x="835.0" y="64" font-size="30" fill="#141414" text-anchor="middle" font-family="Arial Rounded MT Bold,Arial Rounded MT,SF Pro Rounded,Helvetica Rounded,Nunito,Helvetica,Arial,sans-serif">(b) G-Memory</text>
<rect x="588" y="84" width="494" height="234" rx="16" fill="#fffaf3" stroke="#e0a05a" stroke-width="3.4" stroke-dasharray="12 9" stroke-linecap="round"/>
<text x="835.0" y="118" font-size="21" fill="#141414" text-anchor="middle" font-family="Arial Rounded MT Bold,Arial Rounded MT,SF Pro Rounded,Helvetica Rounded,Nunito,Helvetica,Arial,sans-serif">Two-Tier Graph, per Owner</text>
<g transform="translate(657.0,125.0) scale(0.6944)"><g stroke="#141414" stroke-width="3" stroke-linejoin="round" stroke-linecap="round" fill="none"><path d="M36 11 v6"/><circle cx="36" cy="8.5" r="3.4" fill="#f0b429"/><rect x="16" y="17" width="40" height="27" rx="8" fill="#cdd6de"/><path d="M48 17 a8 8 0 0 1 8 8 v11 a8 8 0 0 1 -8 8 z" fill="#aab6c2" stroke="none"/><rect x="16" y="17" width="40" height="27" rx="8"/><circle cx="27" cy="30" r="5" fill="#f0b429"/><circle cx="45" cy="30" r="5" fill="#f0b429"/><circle cx="27" cy="30" r="1.8" fill="#141414" stroke="none"/><circle cx="45" cy="30" r="1.8" fill="#141414" stroke="none"/><rect x="6" y="49" width="9" height="12" rx="4" fill="#aab6c2"/><rect x="57" y="49" width="9" height="12" rx="4" fill="#aab6c2"/><rect x="17" y="47" width="38" height="17" rx="5" fill="#cdd6de"/><rect x="24" y="52" width="24" height="8" rx="2" fill="#eef3f7"/><circle cx="29" cy="56" r="1.5" fill="#f0b429" stroke="none"/><circle cx="36" cy="56" r="1.5" fill="#e0564e" stroke="none"/><circle cx="43" cy="56" r="1.5" fill="#5fc44a" stroke="none"/></g></g>
<text x="728" y="156" font-size="20" fill="#141414" text-anchor="middle" font-family="Arial Rounded MT Bold,Arial Rounded MT,SF Pro Rounded,Helvetica Rounded,Nunito,Helvetica,Arial,sans-serif">A</text>
<ellipse cx="704" cy="208" rx="66" ry="23" fill="#fceccb" stroke="#c97e14" stroke-width="3" stroke-dasharray="7 5"/>
<text x="704" y="215" font-size="17" fill="#141414" text-anchor="middle" font-family="Arial Rounded MT Bold,Arial Rounded MT,SF Pro Rounded,Helvetica Rounded,Nunito,Helvetica,Arial,sans-serif">insight</text>
<rect x="628" y="268" width="46" height="28" rx="8" fill="#ffffff" stroke="#c97e14" stroke-width="3"/><text x="651.0" y="288.0" font-size="14" fill="#141414" text-anchor="middle" font-family="Arial Rounded MT Bold,Arial Rounded MT,SF Pro Rounded,Helvetica Rounded,Nunito,Helvetica,Arial,sans-serif">e</text>
<polygon points="702.8,230.8 660.2,254.9 658.5,251.9 651.0,263.0 664.4,262.3 662.7,259.3 705.2,235.2" fill="#c97e14" stroke="#9c5f0d" stroke-width="1.6" stroke-linejoin="round"/><polygon points="702.8,230.8 660.2,254.9 658.5,251.9 651.0,263.0 664.4,262.3 662.7,259.3 705.2,235.2" fill="url(#hx)"/>
<rect x="681" y="268" width="46" height="28" rx="8" fill="#ffffff" stroke="#c97e14" stroke-width="3"/><text x="704.0" y="288.0" font-size="14" fill="#141414" text-anchor="middle" font-family="Arial Rounded MT Bold,Arial Rounded MT,SF Pro Rounded,Helvetica Rounded,Nunito,Helvetica,Arial,sans-serif">&#8230;</text>
<polygon points="701.5,233.0 701.5,251.0 698.0,251.0 704.0,263.0 710.0,251.0 706.5,251.0 706.5,233.0" fill="#c97e14" stroke="#9c5f0d" stroke-width="1.6" stroke-linejoin="round"/><polygon points="701.5,233.0 701.5,251.0 698.0,251.0 704.0,263.0 710.0,251.0 706.5,251.0 706.5,233.0" fill="url(#hx)"/>
<rect x="734" y="268" width="46" height="28" rx="8" fill="#ffffff" stroke="#c97e14" stroke-width="3"/><text x="757.0" y="288.0" font-size="14" fill="#141414" text-anchor="middle" font-family="Arial Rounded MT Bold,Arial Rounded MT,SF Pro Rounded,Helvetica Rounded,Nunito,Helvetica,Arial,sans-serif">&#8230;</text>
<polygon points="702.8,235.2 745.3,259.3 743.6,262.3 757.0,263.0 749.5,251.9 747.8,254.9 705.2,230.8" fill="#c97e14" stroke="#9c5f0d" stroke-width="1.6" stroke-linejoin="round"/><polygon points="702.8,235.2 745.3,259.3 743.6,262.3 757.0,263.0 749.5,251.9 747.8,254.9 705.2,230.8" fill="url(#hx)"/>
<g transform="translate(919.0,125.0) scale(0.6944)"><g stroke="#141414" stroke-width="3" stroke-linejoin="round" stroke-linecap="round" fill="none"><path d="M36 11 v6"/><circle cx="36" cy="8.5" r="3.4" fill="#f0b429"/><rect x="16" y="17" width="40" height="27" rx="8" fill="#cdd6de"/><path d="M48 17 a8 8 0 0 1 8 8 v11 a8 8 0 0 1 -8 8 z" fill="#aab6c2" stroke="none"/><rect x="16" y="17" width="40" height="27" rx="8"/><circle cx="27" cy="30" r="5" fill="#f0b429"/><circle cx="45" cy="30" r="5" fill="#f0b429"/><circle cx="27" cy="30" r="1.8" fill="#141414" stroke="none"/><circle cx="45" cy="30" r="1.8" fill="#141414" stroke="none"/><rect x="6" y="49" width="9" height="12" rx="4" fill="#aab6c2"/><rect x="57" y="49" width="9" height="12" rx="4" fill="#aab6c2"/><rect x="17" y="47" width="38" height="17" rx="5" fill="#cdd6de"/><rect x="24" y="52" width="24" height="8" rx="2" fill="#eef3f7"/><circle cx="29" cy="56" r="1.5" fill="#f0b429" stroke="none"/><circle cx="36" cy="56" r="1.5" fill="#e0564e" stroke="none"/><circle cx="43" cy="56" r="1.5" fill="#5fc44a" stroke="none"/></g></g>
<text x="990" y="156" font-size="20" fill="#141414" text-anchor="middle" font-family="Arial Rounded MT Bold,Arial Rounded MT,SF Pro Rounded,Helvetica Rounded,Nunito,Helvetica,Arial,sans-serif">B</text>
<ellipse cx="966" cy="208" rx="66" ry="23" fill="#fceccb" stroke="#c97e14" stroke-width="3" stroke-dasharray="7 5"/>
<text x="966" y="215" font-size="17" fill="#141414" text-anchor="middle" font-family="Arial Rounded MT Bold,Arial Rounded MT,SF Pro Rounded,Helvetica Rounded,Nunito,Helvetica,Arial,sans-serif">insight</text>
<rect x="890" y="268" width="46" height="28" rx="8" fill="#ffffff" stroke="#c97e14" stroke-width="3"/><text x="913.0" y="288.0" font-size="14" fill="#141414" text-anchor="middle" font-family="Arial Rounded MT Bold,Arial Rounded MT,SF Pro Rounded,Helvetica Rounded,Nunito,Helvetica,Arial,sans-serif">e</text>
<polygon points="964.8,230.8 922.2,254.9 920.5,251.9 913.0,263.0 926.4,262.3 924.7,259.3 967.2,235.2" fill="#c97e14" stroke="#9c5f0d" stroke-width="1.6" stroke-linejoin="round"/><polygon points="964.8,230.8 922.2,254.9 920.5,251.9 913.0,263.0 926.4,262.3 924.7,259.3 967.2,235.2" fill="url(#hx)"/>
<rect x="943" y="268" width="46" height="28" rx="8" fill="#ffffff" stroke="#c97e14" stroke-width="3"/><text x="966.0" y="288.0" font-size="14" fill="#141414" text-anchor="middle" font-family="Arial Rounded MT Bold,Arial Rounded MT,SF Pro Rounded,Helvetica Rounded,Nunito,Helvetica,Arial,sans-serif">&#8230;</text>
<polygon points="963.5,233.0 963.5,251.0 960.0,251.0 966.0,263.0 972.0,251.0 968.5,251.0 968.5,233.0" fill="#c97e14" stroke="#9c5f0d" stroke-width="1.6" stroke-linejoin="round"/><polygon points="963.5,233.0 963.5,251.0 960.0,251.0 966.0,263.0 972.0,251.0 968.5,251.0 968.5,233.0" fill="url(#hx)"/>
<rect x="996" y="268" width="46" height="28" rx="8" fill="#ffffff" stroke="#c97e14" stroke-width="3"/><text x="1019.0" y="288.0" font-size="14" fill="#141414" text-anchor="middle" font-family="Arial Rounded MT Bold,Arial Rounded MT,SF Pro Rounded,Helvetica Rounded,Nunito,Helvetica,Arial,sans-serif">&#8230;</text>
<polygon points="964.8,235.2 1007.3,259.3 1005.6,262.3 1019.0,263.0 1011.5,251.9 1009.8,254.9 967.2,230.8" fill="#c97e14" stroke="#9c5f0d" stroke-width="1.6" stroke-linejoin="round"/><polygon points="964.8,235.2 1007.3,259.3 1005.6,262.3 1019.0,263.0 1011.5,251.9 1009.8,254.9 967.2,230.8" fill="url(#hx)"/>
<text x="835" y="216" font-size="15" fill="#5b6470" text-anchor="middle" font-family="Arial Rounded MT Bold,Arial Rounded MT,SF Pro Rounded,Helvetica Rounded,Nunito,Helvetica,Arial,sans-serif">derived_from</text>
<text x="835" y="356" font-size="20" fill="#141414" text-anchor="middle" font-family="Arial Rounded MT Bold,Arial Rounded MT,SF Pro Rounded,Helvetica Rounded,Nunito,Helvetica,Arial,sans-serif">A Graph — Never Across Owners</text>
<text x="835" y="384" font-size="15" fill="#5b6470" text-anchor="middle" font-family="Arial Rounded MT Bold,Arial Rounded MT,SF Pro Rounded,Helvetica Rounded,Nunito,Helvetica,Arial,sans-serif">insights distilled every 20 rounds</text>
<rect x="14" y="426" width="542" height="392" rx="22" fill="#fbe6e6" stroke="#d97f7f" stroke-width="5"/>
<text x="285.0" y="478" font-size="30" fill="#141414" text-anchor="middle" font-family="Arial Rounded MT Bold,Arial Rounded MT,SF Pro Rounded,Helvetica Rounded,Nunito,Helvetica,Arial,sans-serif">(c) Collaborative</text>
<rect x="38" y="498" width="494" height="234" rx="16" fill="#fff8f8" stroke="#d97f7f" stroke-width="3.4" stroke-dasharray="12 9" stroke-linecap="round"/>
<text x="285.0" y="532" font-size="21" fill="#141414" text-anchor="middle" font-family="Arial Rounded MT Bold,Arial Rounded MT,SF Pro Rounded,Helvetica Rounded,Nunito,Helvetica,Arial,sans-serif">One Store, Split by Permission</text>
<g transform="translate(106.0,540.0) scale(0.7222)"><g stroke="#141414" stroke-width="3" stroke-linejoin="round" stroke-linecap="round" fill="none"><path d="M36 11 v6"/><circle cx="36" cy="8.5" r="3.4" fill="#f0b429"/><rect x="16" y="17" width="40" height="27" rx="8" fill="#cdd6de"/><path d="M48 17 a8 8 0 0 1 8 8 v11 a8 8 0 0 1 -8 8 z" fill="#aab6c2" stroke="none"/><rect x="16" y="17" width="40" height="27" rx="8"/><circle cx="27" cy="30" r="5" fill="#f0b429"/><circle cx="45" cy="30" r="5" fill="#f0b429"/><circle cx="27" cy="30" r="1.8" fill="#141414" stroke="none"/><circle cx="45" cy="30" r="1.8" fill="#141414" stroke="none"/><rect x="6" y="49" width="9" height="12" rx="4" fill="#aab6c2"/><rect x="57" y="49" width="9" height="12" rx="4" fill="#aab6c2"/><rect x="17" y="47" width="38" height="17" rx="5" fill="#cdd6de"/><rect x="24" y="52" width="24" height="8" rx="2" fill="#eef3f7"/><circle cx="29" cy="56" r="1.5" fill="#f0b429" stroke="none"/><circle cx="36" cy="56" r="1.5" fill="#e0564e" stroke="none"/><circle cx="43" cy="56" r="1.5" fill="#5fc44a" stroke="none"/></g></g>
<text x="180" y="572" font-size="20" fill="#141414" text-anchor="middle" font-family="Arial Rounded MT Bold,Arial Rounded MT,SF Pro Rounded,Helvetica Rounded,Nunito,Helvetica,Arial,sans-serif">A</text>
<g transform="translate(368.0,540.0) scale(0.7222)"><g stroke="#141414" stroke-width="3" stroke-linejoin="round" stroke-linecap="round" fill="none"><path d="M36 11 v6"/><circle cx="36" cy="8.5" r="3.4" fill="#f0b429"/><rect x="16" y="17" width="40" height="27" rx="8" fill="#cdd6de"/><path d="M48 17 a8 8 0 0 1 8 8 v11 a8 8 0 0 1 -8 8 z" fill="#aab6c2" stroke="none"/><rect x="16" y="17" width="40" height="27" rx="8"/><circle cx="27" cy="30" r="5" fill="#f0b429"/><circle cx="45" cy="30" r="5" fill="#f0b429"/><circle cx="27" cy="30" r="1.8" fill="#141414" stroke="none"/><circle cx="45" cy="30" r="1.8" fill="#141414" stroke="none"/><rect x="6" y="49" width="9" height="12" rx="4" fill="#aab6c2"/><rect x="57" y="49" width="9" height="12" rx="4" fill="#aab6c2"/><rect x="17" y="47" width="38" height="17" rx="5" fill="#cdd6de"/><rect x="24" y="52" width="24" height="8" rx="2" fill="#eef3f7"/><circle cx="29" cy="56" r="1.5" fill="#f0b429" stroke="none"/><circle cx="36" cy="56" r="1.5" fill="#e0564e" stroke="none"/><circle cx="43" cy="56" r="1.5" fill="#5fc44a" stroke="none"/></g></g>
<text x="442" y="572" font-size="20" fill="#141414" text-anchor="middle" font-family="Arial Rounded MT Bold,Arial Rounded MT,SF Pro Rounded,Helvetica Rounded,Nunito,Helvetica,Arial,sans-serif">B</text>
<rect x="84" y="596" width="144" height="32" rx="8" fill="#fbdede" stroke="#cf4444" stroke-width="3"/><text x="156.0" y="618.0" font-size="16" fill="#141414" text-anchor="middle" font-family="Arial Rounded MT Bold,Arial Rounded MT,SF Pro Rounded,Helvetica Rounded,Nunito,Helvetica,Arial,sans-serif">e &#183; {A}</text>
<rect x="346" y="596" width="144" height="32" rx="8" fill="#fbdede" stroke="#cf4444" stroke-width="3"/><text x="418.0" y="618.0" font-size="16" fill="#141414" text-anchor="middle" font-family="Arial Rounded MT Bold,Arial Rounded MT,SF Pro Rounded,Helvetica Rounded,Nunito,Helvetica,Arial,sans-serif">e &#183; {A, B}</text>
<rect x="84" y="638" width="144" height="32" rx="8" fill="#ffffff" stroke="#cf4444" stroke-width="3"/><text x="156.0" y="660.0" font-size="16" fill="#141414" text-anchor="middle" font-family="Arial Rounded MT Bold,Arial Rounded MT,SF Pro Rounded,Helvetica Rounded,Nunito,Helvetica,Arial,sans-serif">&#8230; &#183; {A}</text>
<rect x="346" y="638" width="144" height="32" rx="8" fill="#ffffff" stroke="#cf4444" stroke-width="3"/><text x="418.0" y="660.0" font-size="16" fill="#141414" text-anchor="middle" font-family="Arial Rounded MT Bold,Arial Rounded MT,SF Pro Rounded,Helvetica Rounded,Nunito,Helvetica,Arial,sans-serif">&#8230; &#183; {B}</text>
<g transform="translate(262.0,595.0) scale(0.6389)"><g stroke="#141414" stroke-width="3" stroke-linejoin="round" stroke-linecap="round" fill="none"><path d="M24 33 v-8 a12 12 0 0 1 24 0 v8" stroke-width="3.6"/><rect x="15" y="33" width="42" height="28" rx="6" fill="#f0b429"/><path d="M45 33 h6 a6 6 0 0 1 6 6 v16 a6 6 0 0 1 -6 6 h-6 z" fill="#d99a15" stroke="none"/><rect x="15" y="33" width="42" height="28" rx="6"/><circle cx="36" cy="44" r="4.4" fill="#141414"/><path d="M36 47 v6" stroke-width="3.4"/></g></g>
<polygon points="232.0,694.5 322.0,694.5 322.0,700.0 342.0,690.0 322.0,680.0 322.0,685.5 232.0,685.5" fill="#cf4444" stroke="#a33" stroke-width="1.6" stroke-linejoin="round"/><polygon points="232.0,694.5 322.0,694.5 322.0,700.0 342.0,690.0 322.0,680.0 322.0,685.5 232.0,685.5" fill="url(#hx)"/>
<text x="285" y="718" font-size="16" fill="#141414" text-anchor="middle" font-family="Arial Rounded MT Bold,Arial Rounded MT,SF Pro Rounded,Helvetica Rounded,Nunito,Helvetica,Arial,sans-serif">grant</text>
<text x="285" y="774" font-size="21" fill="#141414" text-anchor="middle" font-family="Arial Rounded MT Bold,Arial Rounded MT,SF Pro Rounded,Helvetica Rounded,Nunito,Helvetica,Arial,sans-serif">A Permission, Not a Merge</text>
<text x="285" y="802" font-size="15" fill="#5b6470" text-anchor="middle" font-family="Arial Rounded MT Bold,Arial Rounded MT,SF Pro Rounded,Helvetica Rounded,Nunito,Helvetica,Arial,sans-serif">two rows survive, one event</text>
<rect x="564" y="426" width="542" height="392" rx="22" fill="#e4f0fb" stroke="#3f7fc4" stroke-width="5"/>
<text x="835.0" y="478" font-size="30" fill="#141414" text-anchor="middle" font-family="Arial Rounded MT Bold,Arial Rounded MT,SF Pro Rounded,Helvetica Rounded,Nunito,Helvetica,Arial,sans-serif">(d) Consensus  (ours)</text>
<rect x="588" y="498" width="494" height="234" rx="16" fill="#f4faff" stroke="#3f7fc4" stroke-width="3.4" stroke-dasharray="12 9" stroke-linecap="round"/>
<text x="835.0" y="532" font-size="21" fill="#141414" text-anchor="middle" font-family="Arial Rounded MT Bold,Arial Rounded MT,SF Pro Rounded,Helvetica Rounded,Nunito,Helvetica,Arial,sans-serif">One Record, Several Owners</text>
<g transform="translate(667.0,539.0) scale(0.6944)"><g stroke="#141414" stroke-width="3" stroke-linejoin="round" stroke-linecap="round" fill="none"><path d="M36 11 v6"/><circle cx="36" cy="8.5" r="3.4" fill="#f0b429"/><rect x="16" y="17" width="40" height="27" rx="8" fill="#cdd6de"/><path d="M48 17 a8 8 0 0 1 8 8 v11 a8 8 0 0 1 -8 8 z" fill="#aab6c2" stroke="none"/><rect x="16" y="17" width="40" height="27" rx="8"/><circle cx="27" cy="30" r="5" fill="#f0b429"/><circle cx="45" cy="30" r="5" fill="#f0b429"/><circle cx="27" cy="30" r="1.8" fill="#141414" stroke="none"/><circle cx="45" cy="30" r="1.8" fill="#141414" stroke="none"/><rect x="6" y="49" width="9" height="12" rx="4" fill="#aab6c2"/><rect x="57" y="49" width="9" height="12" rx="4" fill="#aab6c2"/><rect x="17" y="47" width="38" height="17" rx="5" fill="#cdd6de"/><rect x="24" y="52" width="24" height="8" rx="2" fill="#eef3f7"/><circle cx="29" cy="56" r="1.5" fill="#f0b429" stroke="none"/><circle cx="36" cy="56" r="1.5" fill="#e0564e" stroke="none"/><circle cx="43" cy="56" r="1.5" fill="#5fc44a" stroke="none"/></g></g>
<text x="738" y="570" font-size="20" fill="#141414" text-anchor="middle" font-family="Arial Rounded MT Bold,Arial Rounded MT,SF Pro Rounded,Helvetica Rounded,Nunito,Helvetica,Arial,sans-serif">A</text>
<polygon points="708.7,595.1 725.0,612.5 721.0,616.2 742.0,624.0 735.6,602.6 731.6,606.3 715.3,588.9" fill="#e0564e" stroke="#b8433c" stroke-width="1.6" stroke-linejoin="round"/><polygon points="708.7,595.1 725.0,612.5 721.0,616.2 742.0,624.0 735.6,602.6 731.6,606.3 715.3,588.9" fill="url(#hx)"/>
<g transform="translate(790.0,539.0) scale(0.6944)"><g stroke="#141414" stroke-width="3" stroke-linejoin="round" stroke-linecap="round" fill="none"><path d="M36 11 v6"/><circle cx="36" cy="8.5" r="3.4" fill="#f0b429"/><rect x="16" y="17" width="40" height="27" rx="8" fill="#cdd6de"/><path d="M48 17 a8 8 0 0 1 8 8 v11 a8 8 0 0 1 -8 8 z" fill="#aab6c2" stroke="none"/><rect x="16" y="17" width="40" height="27" rx="8"/><circle cx="27" cy="30" r="5" fill="#f0b429"/><circle cx="45" cy="30" r="5" fill="#f0b429"/><circle cx="27" cy="30" r="1.8" fill="#141414" stroke="none"/><circle cx="45" cy="30" r="1.8" fill="#141414" stroke="none"/><rect x="6" y="49" width="9" height="12" rx="4" fill="#aab6c2"/><rect x="57" y="49" width="9" height="12" rx="4" fill="#aab6c2"/><rect x="17" y="47" width="38" height="17" rx="5" fill="#cdd6de"/><rect x="24" y="52" width="24" height="8" rx="2" fill="#eef3f7"/><circle cx="29" cy="56" r="1.5" fill="#f0b429" stroke="none"/><circle cx="36" cy="56" r="1.5" fill="#e0564e" stroke="none"/><circle cx="43" cy="56" r="1.5" fill="#5fc44a" stroke="none"/></g></g>
<text x="861" y="570" font-size="20" fill="#141414" text-anchor="middle" font-family="Arial Rounded MT Bold,Arial Rounded MT,SF Pro Rounded,Helvetica Rounded,Nunito,Helvetica,Arial,sans-serif">B</text>
<polygon points="830.5,592.0 830.5,604.0 825.0,604.0 835.0,624.0 845.0,604.0 839.5,604.0 839.5,592.0" fill="#e0564e" stroke="#b8433c" stroke-width="1.6" stroke-linejoin="round"/><polygon points="830.5,592.0 830.5,604.0 825.0,604.0 835.0,624.0 845.0,604.0 839.5,604.0 839.5,592.0" fill="url(#hx)"/>
<g transform="translate(913.0,539.0) scale(0.6944)"><g stroke="#141414" stroke-width="3" stroke-linejoin="round" stroke-linecap="round" fill="none"><path d="M36 11 v6"/><circle cx="36" cy="8.5" r="3.4" fill="#f0b429"/><rect x="16" y="17" width="40" height="27" rx="8" fill="#cdd6de"/><path d="M48 17 a8 8 0 0 1 8 8 v11 a8 8 0 0 1 -8 8 z" fill="#aab6c2" stroke="none"/><rect x="16" y="17" width="40" height="27" rx="8"/><circle cx="27" cy="30" r="5" fill="#f0b429"/><circle cx="45" cy="30" r="5" fill="#f0b429"/><circle cx="27" cy="30" r="1.8" fill="#141414" stroke="none"/><circle cx="45" cy="30" r="1.8" fill="#141414" stroke="none"/><rect x="6" y="49" width="9" height="12" rx="4" fill="#aab6c2"/><rect x="57" y="49" width="9" height="12" rx="4" fill="#aab6c2"/><rect x="17" y="47" width="38" height="17" rx="5" fill="#cdd6de"/><rect x="24" y="52" width="24" height="8" rx="2" fill="#eef3f7"/><circle cx="29" cy="56" r="1.5" fill="#f0b429" stroke="none"/><circle cx="36" cy="56" r="1.5" fill="#e0564e" stroke="none"/><circle cx="43" cy="56" r="1.5" fill="#5fc44a" stroke="none"/></g></g>
<text x="984" y="570" font-size="20" fill="#141414" text-anchor="middle" font-family="Arial Rounded MT Bold,Arial Rounded MT,SF Pro Rounded,Helvetica Rounded,Nunito,Helvetica,Arial,sans-serif">C</text>
<polygon points="954.7,588.9 938.4,606.3 934.4,602.6 928.0,624.0 949.0,616.2 945.0,612.5 961.3,595.1" fill="#e0564e" stroke="#b8433c" stroke-width="1.6" stroke-linejoin="round"/><polygon points="954.7,588.9 938.4,606.3 934.4,602.6 928.0,624.0 949.0,616.2 945.0,612.5 961.3,595.1" fill="url(#hx)"/>
<rect x="648" y="630" width="376" height="38" rx="8" fill="#dceafa" stroke="#2f6fd0" stroke-width="3"/><text x="836.0" y="655.0" font-size="19" fill="#141414" text-anchor="middle" font-family="Arial Rounded MT Bold,Arial Rounded MT,SF Pro Rounded,Helvetica Rounded,Nunito,Helvetica,Arial,sans-serif">e &#183; owners {A, B, C}</text>
<rect x="618" y="686" width="156" height="30" rx="8" fill="#e9e0fb" stroke="#7c4dd6" stroke-width="3"/><text x="696.0" y="707.0" font-size="14" fill="#141414" text-anchor="middle" font-family="Arial Rounded MT Bold,Arial Rounded MT,SF Pro Rounded,Helvetica Rounded,Nunito,Helvetica,Arial,sans-serif">sibling &#183; {A, B}</text>
<rect x="900" y="686" width="142" height="30" rx="8" fill="#e9e0fb" stroke="#7c4dd6" stroke-width="3"/><text x="971.0" y="707.0" font-size="14" fill="#141414" text-anchor="middle" font-family="Arial Rounded MT Bold,Arial Rounded MT,SF Pro Rounded,Helvetica Rounded,Nunito,Helvetica,Arial,sans-serif">sibling &#183; {C}</text>
<polygon points="662.6,672.1 670.6,677.4 668.7,680.3 682.0,682.0 675.3,670.4 673.4,673.3 665.4,667.9" fill="#7c4dd6" stroke="#5b2fa8" stroke-width="1.6" stroke-linejoin="round"/><polygon points="662.6,672.1 670.6,677.4 668.7,680.3 682.0,682.0 675.3,670.4 673.4,673.3 665.4,667.9" fill="url(#hx)"/>
<polygon points="1006.6,667.9 998.6,673.3 996.7,670.4 990.0,682.0 1003.3,680.3 1001.4,677.4 1009.4,672.1" fill="#7c4dd6" stroke="#5b2fa8" stroke-width="1.6" stroke-linejoin="round"/><polygon points="1006.6,667.9 998.6,673.3 996.7,670.4 990.0,682.0 1003.3,680.3 1001.4,677.4 1009.4,672.1" fill="url(#hx)"/>
<text x="835" y="718" font-size="15" fill="#141414" text-anchor="middle" font-family="Arial Rounded MT Bold,Arial Rounded MT,SF Pro Rounded,Helvetica Rounded,Nunito,Helvetica,Arial,sans-serif">affiliated</text>
<text x="835" y="774" font-size="21" fill="#141414" text-anchor="middle" font-family="Arial Rounded MT Bold,Arial Rounded MT,SF Pro Rounded,Helvetica Rounded,Nunito,Helvetica,Arial,sans-serif">Computed at Deposit Time</text>
<text x="835" y="802" font-size="15" fill="#5b6470" text-anchor="middle" font-family="Arial Rounded MT Bold,Arial Rounded MT,SF Pro Rounded,Helvetica Rounded,Nunito,Helvetica,Arial,sans-serif">owner set is the union</text>
</svg>