<svg xmlns="http://www.w3.org/2000/svg" viewBox="0 0 1300 748" font-family="Arial Rounded MT Bold,Arial Rounded MT,SF Pro Rounded,Helvetica Rounded,Nunito,Helvetica,Arial,sans-serif" style="max-width:100%;height:auto">
<defs><pattern id="hx" width="9" height="9" patternUnits="userSpaceOnUse" patternTransform="rotate(45)"><line x1="0" y1="0" x2="0" y2="9" stroke="#ffffff" stroke-width="3" opacity="0.30"/></pattern></defs>
<rect width="1300" height="748" fill="#ffffff"/>
<rect x="14" y="12" width="1272" height="228" rx="22" fill="#fbead6" stroke="#e0a05a" stroke-width="5"/>
<text x="650.0" y="64" font-size="30" fill="#141414" text-anchor="middle" font-family="Arial Rounded MT Bold,Arial Rounded MT,SF Pro Rounded,Helvetica Rounded,Nunito,Helvetica,Arial,sans-serif">Offline · Long-Term Memory Initialization</text>
<rect x="38" y="74" width="372" height="142" rx="16" fill="#fffaf3" stroke="#e0a05a" stroke-width="3.4" stroke-dasharray="12 9" stroke-linecap="round"/>
<text x="224.0" y="108" font-size="21" fill="#141414" text-anchor="middle" font-family="Arial Rounded MT Bold,Arial Rounded MT,SF Pro Rounded,Helvetica Rounded,Nunito,Helvetica,Arial,sans-serif">Source Text</text>
<g transform="translate(195.0,117.0) scale(0.8056)"><g stroke="#141414" stroke-width="3" stroke-linejoin="round" stroke-linecap="round" fill="none"><path d="M36 21 q-9 -6 -23 -4 v33 q14 -2 23 4 Z" fill="#ffffff"/><path d="M36 21 q9 -6 23 -4 v33 q-14 -2 -23 4 Z" fill="#e8eef4"/><path d="M36 21 v33"/><path d="M19 28 h11 M19 35 h11 M42 28 h11 M42 35 h11" stroke-width="2.3"/></g></g>
<text x="224" y="204" font-size="16" fill="#141414" text-anchor="middle" font-family="Arial Rounded MT Bold,Arial Rounded MT,SF Pro Rounded,Helvetica Rounded,Nunito,Helvetica,Arial,sans-serif">Novel · Play · Timeline</text>
<polygon points="424.0,157.5 445.0,157.5 445.0,164.5 472.0,151.0 445.0,137.5 445.0,144.5 424.0,144.5" fill="#e0564e" stroke="#b8433c" stroke-width="1.6" stroke-linejoin="round"/><polygon points="424.0,157.5 445.0,157.5 445.0,164.5 472.0,151.0 445.0,137.5 445.0,144.5 424.0,144.5" fill="url(#hx)"/>
<rect x="486" y="74" width="372" height="142" rx="16" fill="#fffaf3" stroke="#e0a05a" stroke-width="3.4" stroke-dasharray="12 9" stroke-linecap="round"/>
<text x="672.0" y="108" font-size="21" fill="#141414" text-anchor="middle" font-family="Arial Rounded MT Bold,Arial Rounded MT,SF Pro Rounded,Helvetica Rounded,Nunito,Helvetica,Arial,sans-serif">Extract &amp; Attribute</text>
<g transform="translate(644.0,118.0) scale(0.7778)"><g stroke="#141414" stroke-width="3" stroke-linecap="round" fill="none"><circle cx="31" cy="30" r="16" fill="#cfe6fa"/><path d="M25 24 a9 9 0 0 1 8 -4" stroke="#ffffff" stroke-width="2.6"/><path d="M43 42 L57 56" stroke-width="6"/></g></g>
<text x="672" y="204" font-size="16" fill="#141414" text-anchor="middle" font-family="Arial Rounded MT Bold,Arial Rounded MT,SF Pro Rounded,Helvetica Rounded,Nunito,Helvetica,Arial,sans-serif">Who Witnessed It?</text>
<polygon points="872.0,157.5 893.0,157.5 893.0,164.5 920.0,151.0 893.0,137.5 893.0,144.5 872.0,144.5" fill="#e0564e" stroke="#b8433c" stroke-width="1.6" stroke-linejoin="round"/><polygon points="872.0,157.5 893.0,157.5 893.0,164.5 920.0,151.0 893.0,137.5 893.0,144.5 872.0,144.5" fill="url(#hx)"/>
<rect x="934" y="74" width="328" height="142" rx="16" fill="#f4faff" stroke="#3f7fc4" stroke-width="3.4" stroke-dasharray="12 9" stroke-linecap="round"/>
<text x="1098.0" y="108" font-size="21" fill="#141414" text-anchor="middle" font-family="Arial Rounded MT Bold,Arial Rounded MT,SF Pro Rounded,Helvetica Rounded,Nunito,Helvetica,Arial,sans-serif">Owner-Tagged Events</text>
<rect x="1010" y="112" width="176" height="32" rx="8" fill="#ffffff" stroke="#3f7fc4" stroke-width="3"/><text x="1098.0" y="134.0" font-size="16" fill="#141414" text-anchor="middle" font-family="Arial Rounded MT Bold,Arial Rounded MT,SF Pro Rounded,Helvetica Rounded,Nunito,Helvetica,Arial,sans-serif">e &#183; {A, B}</text>
<rect x="1010" y="146" width="176" height="32" rx="8" fill="#ffffff" stroke="#3f7fc4" stroke-width="3"/><text x="1098.0" y="168.0" font-size="16" fill="#141414" text-anchor="middle" font-family="Arial Rounded MT Bold,Arial Rounded MT,SF Pro Rounded,Helvetica Rounded,Nunito,Helvetica,Arial,sans-serif">&#8230; &#183; {C}</text>
<rect x="1010" y="180" width="176" height="32" rx="8" fill="#ffffff" stroke="#3f7fc4" stroke-width="3"/><text x="1098.0" y="202.0" font-size="16" fill="#141414" text-anchor="middle" font-family="Arial Rounded MT Bold,Arial Rounded MT,SF Pro Rounded,Helvetica Rounded,Nunito,Helvetica,Arial,sans-serif">&#8230; &#183; {A, D}</text>
<polygon points="1092.7,254.0 1118.2,276.3 1113.5,281.5 1146.0,290.0 1133.3,259.0 1128.7,264.2 1103.3,242.0" fill="#e0564e" stroke="#b8433c" stroke-width="1.6" stroke-linejoin="round"/><polygon points="1092.7,254.0 1118.2,276.3 1113.5,281.5 1146.0,290.0 1133.3,259.0 1128.7,264.2 1103.3,242.0" fill="url(#hx)"/>
<text x="1060" y="276" font-size="19" fill="#e0564e" text-anchor="end" font-family="Arial Rounded MT Bold,Arial Rounded MT,SF Pro Rounded,Helvetica Rounded,Nunito,Helvetica,Arial,sans-serif">seeds the store</text>
<rect x="14" y="300" width="1272" height="424" rx="22" fill="#e4f0fb" stroke="#3f7fc4" stroke-width="5"/>
<text x="650.0" y="352" font-size="30" fill="#141414" text-anchor="middle" font-family="Arial Rounded MT Bold,Arial Rounded MT,SF Pro Rounded,Helvetica Rounded,Nunito,Helvetica,Arial,sans-serif">Runtime · Simulation</text>
<rect x="38" y="372" width="522" height="322" rx="16" fill="#f4fdf4" stroke="#4faa6a" stroke-width="3.4" stroke-dasharray="12 9" stroke-linecap="round"/>
<text x="299.0" y="406" font-size="21" fill="#141414" text-anchor="middle" font-family="Arial Rounded MT Bold,Arial Rounded MT,SF Pro Rounded,Helvetica Rounded,Nunito,Helvetica,Arial,sans-serif">The Society</text>
<g transform="translate(109.0,426.0) scale(1.0000)"><g stroke="#141414" stroke-width="3" stroke-linejoin="round" stroke-linecap="round" fill="none"><path d="M36 11 v6"/><circle cx="36" cy="8.5" r="3.4" fill="#f0b429"/><rect x="16" y="17" width="40" height="27" rx="8" fill="#cdd6de"/><path d="M48 17 a8 8 0 0 1 8 8 v11 a8 8 0 0 1 -8 8 z" fill="#aab6c2" stroke="none"/><rect x="16" y="17" width="40" height="27" rx="8"/><circle cx="27" cy="30" r="5" fill="#f0b429"/><circle cx="45" cy="30" r="5" fill="#f0b429"/><circle cx="27" cy="30" r="1.8" fill="#141414" stroke="none"/><circle cx="45" cy="30" r="1.8" fill="#141414" stroke="none"/><rect x="6" y="49" width="9" height="12" rx="4" fill="#aab6c2"/><rect x="57" y="49" width="9" height="12" rx="4" fill="#aab6c2"/><rect x="17" y="47" width="38" height="17" rx="5" fill="#cdd6de"/><rect x="24" y="52" width="24" height="8" rx="2" fill="#eef3f7"/><circle cx="29" cy="56" r="1.5" fill="#f0b429" stroke="none"/><circle cx="36" cy="56" r="1.5" fill="#e0564e" stroke="none"/><circle cx="43" cy="56" r="1.5" fill="#5fc44a" stroke="none"/></g></g>
<text x="145" y="512" font-size="16" fill="#141414" text-anchor="middle" font-family="Arial Rounded MT Bold,Arial Rounded MT,SF Pro Rounded,Helvetica Rounded,Nunito,Helvetica,Arial,sans-serif">Agent</text>
<g transform="translate(264.0,426.0) scale(1.0000)"><g stroke="#141414" stroke-width="3" stroke-linejoin="round" stroke-linecap="round" fill="none"><path d="M36 11 v6"/><circle cx="36" cy="8.5" r="3.4" fill="#f0b429"/><rect x="16" y="17" width="40" height="27" rx="8" fill="#cdd6de"/><path d="M48 17 a8 8 0 0 1 8 8 v11 a8 8 0 0 1 -8 8 z" fill="#aab6c2" stroke="none"/><rect x="16" y="17" width="40" height="27" rx="8"/><circle cx="27" cy="30" r="5" fill="#f0b429"/><circle cx="45" cy="30" r="5" fill="#f0b429"/><circle cx="27" cy="30" r="1.8" fill="#141414" stroke="none"/><circle cx="45" cy="30" r="1.8" fill="#141414" stroke="none"/><rect x="6" y="49" width="9" height="12" rx="4" fill="#aab6c2"/><rect x="57" y="49" width="9" height="12" rx="4" fill="#aab6c2"/><rect x="17" y="47" width="38" height="17" rx="5" fill="#cdd6de"/><rect x="24" y="52" width="24" height="8" rx="2" fill="#eef3f7"/><circle cx="29" cy="56" r="1.5" fill="#f0b429" stroke="none"/><circle cx="36" cy="56" r="1.5" fill="#e0564e" stroke="none"/><circle cx="43" cy="56" r="1.5" fill="#5fc44a" stroke="none"/></g></g>
<text x="300" y="512" font-size="16" fill="#141414" text-anchor="middle" font-family="Arial Rounded MT Bold,Arial Rounded MT,SF Pro Rounded,Helvetica Rounded,Nunito,Helvetica,Arial,sans-serif">Agent</text>
<g transform="translate(419.0,426.0) scale(1.0000)"><g stroke="#141414" stroke-width="3" stroke-linejoin="round" stroke-linecap="round" fill="none"><path d="M36 11 v6"/><circle cx="36" cy="8.5" r="3.4" fill="#f0b429"/><rect x="16" y="17" width="40" height="27" rx="8" fill="#cdd6de"/><path d="M48 17 a8 8 0 0 1 8 8 v11 a8 8 0 0 1 -8 8 z" fill="#aab6c2" stroke="none"/><rect x="16" y="17" width="40" height="27" rx="8"/><circle cx="27" cy="30" r="5" fill="#f0b429"/><circle cx="45" cy="30" r="5" fill="#f0b429"/><circle cx="27" cy="30" r="1.8" fill="#141414" stroke="none"/><circle cx="45" cy="30" r="1.8" fill="#141414" stroke="none"/><rect x="6" y="49" width="9" height="12" rx="4" fill="#aab6c2"/><rect x="57" y="49" width="9" height="12" rx="4" fill="#aab6c2"/><rect x="17" y="47" width="38" height="17" rx="5" fill="#cdd6de"/><rect x="24" y="52" width="24" height="8" rx="2" fill="#eef3f7"/><circle cx="29" cy="56" r="1.5" fill="#f0b429" stroke="none"/><circle cx="36" cy="56" r="1.5" fill="#e0564e" stroke="none"/><circle cx="43" cy="56" r="1.5" fill="#5fc44a" stroke="none"/></g></g>
<text x="455" y="512" font-size="16" fill="#141414" text-anchor="middle" font-family="Arial Rounded MT Bold,Arial Rounded MT,SF Pro Rounded,Helvetica Rounded,Nunito,Helvetica,Arial,sans-serif">Agent</text>
<polygon points="190.0,453.0 236.0,453.0 236.0,459.0 258.0,448.0 236.0,437.0 236.0,443.0 190.0,443.0" fill="#e0564e" stroke="#b8433c" stroke-width="1.6" stroke-linejoin="round"/><polygon points="190.0,453.0 236.0,453.0 236.0,459.0 258.0,448.0 236.0,437.0 236.0,443.0 190.0,443.0" fill="url(#hx)"/>
<text x="224" y="428" font-size="16" fill="#e0564e" text-anchor="middle" font-family="Arial Rounded MT Bold,Arial Rounded MT,SF Pro Rounded,Helvetica Rounded,Nunito,Helvetica,Arial,sans-serif">say</text>
<polygon points="137.5,526.1 121.8,556.2 117.3,553.9 117.0,574.0 133.3,562.2 128.9,559.9 144.5,529.9" fill="#e0564e" stroke="#b8433c" stroke-width="1.6" stroke-linejoin="round"/><polygon points="137.5,526.1 121.8,556.2 117.3,553.9 117.0,574.0 133.3,562.2 128.9,559.9 144.5,529.9" fill="url(#hx)"/>
<text x="158" y="556" font-size="15" fill="#e0564e" text-anchor="start" font-family="Arial Rounded MT Bold,Arial Rounded MT,SF Pro Rounded,Helvetica Rounded,Nunito,Helvetica,Arial,sans-serif">observe</text>
<polygon points="291.1,525.2 259.6,558.2 255.9,554.8 250.0,574.0 268.9,567.2 265.3,563.8 296.9,530.8" fill="#e0564e" stroke="#b8433c" stroke-width="1.6" stroke-linejoin="round"/><polygon points="291.1,525.2 259.6,558.2 255.9,554.8 250.0,574.0 268.9,567.2 265.3,563.8 296.9,530.8" fill="url(#hx)"/>
<text x="312" y="556" font-size="15" fill="#e0564e" text-anchor="start" font-family="Arial Rounded MT Bold,Arial Rounded MT,SF Pro Rounded,Helvetica Rounded,Nunito,Helvetica,Arial,sans-serif">move</text>
<polygon points="457.7,530.3 478.4,559.6 474.3,562.5 492.0,572.0 489.0,552.1 484.9,555.0 464.3,525.7" fill="#e0564e" stroke="#b8433c" stroke-width="1.6" stroke-linejoin="round"/><polygon points="457.7,530.3 478.4,559.6 474.3,562.5 492.0,572.0 489.0,552.1 484.9,555.0 464.3,525.7" fill="url(#hx)"/>
<text x="506" y="556" font-size="15" fill="#e0564e" text-anchor="start" font-family="Arial Rounded MT Bold,Arial Rounded MT,SF Pro Rounded,Helvetica Rounded,Nunito,Helvetica,Arial,sans-serif">read</text>
<g transform="translate(79.0,581.0) scale(0.8611)"><g stroke="#141414" stroke-width="3" stroke-linejoin="round" fill="none"><rect x="9" y="33" width="20" height="29" fill="#8fb8d9"/><rect x="27" y="15" width="20" height="47" fill="#c3dcf0"/><rect x="45" y="26" width="18" height="36" fill="#8fb8d9"/><g fill="#f0b429" stroke="none"><rect x="14" y="39" width="4.5" height="5"/><rect x="21" y="39" width="4.5" height="5"/><rect x="14" y="48" width="4.5" height="5"/><rect x="21" y="48" width="4.5" height="5"/><rect x="32" y="23" width="4.5" height="5"/><rect x="39" y="23" width="4.5" height="5"/><rect x="32" y="33" width="4.5" height="5"/><rect x="39" y="33" width="4.5" height="5"/><rect x="32" y="43" width="4.5" height="5"/><rect x="39" y="43" width="4.5" height="5"/><rect x="50" y="33" width="4.5" height="5"/><rect x="56" y="33" width="4.5" height="5"/><rect x="50" y="43" width="4.5" height="5"/><rect x="56" y="43" width="4.5" height="5"/></g><path d="M5 62 h62" stroke-width="3.4"/></g></g>
<text x="110" y="662" font-size="15" fill="#141414" text-anchor="middle" font-family="Arial Rounded MT Bold,Arial Rounded MT,SF Pro Rounded,Helvetica Rounded,Nunito,Helvetica,Arial,sans-serif">Location</text>
<g transform="translate(209.0,581.0) scale(0.8611)"><g stroke="#141414" stroke-width="3" stroke-linejoin="round" fill="none"><rect x="9" y="33" width="20" height="29" fill="#8fb8d9"/><rect x="27" y="15" width="20" height="47" fill="#c3dcf0"/><rect x="45" y="26" width="18" height="36" fill="#8fb8d9"/><g fill="#f0b429" stroke="none"><rect x="14" y="39" width="4.5" height="5"/><rect x="21" y="39" width="4.5" height="5"/><rect x="14" y="48" width="4.5" height="5"/><rect x="21" y="48" width="4.5" height="5"/><rect x="32" y="23" width="4.5" height="5"/><rect x="39" y="23" width="4.5" height="5"/><rect x="32" y="33" width="4.5" height="5"/><rect x="39" y="33" width="4.5" height="5"/><rect x="32" y="43" width="4.5" height="5"/><rect x="39" y="43" width="4.5" height="5"/><rect x="50" y="33" width="4.5" height="5"/><rect x="56" y="33" width="4.5" height="5"/><rect x="50" y="43" width="4.5" height="5"/><rect x="56" y="43" width="4.5" height="5"/></g><path d="M5 62 h62" stroke-width="3.4"/></g></g>
<text x="240" y="662" font-size="15" fill="#141414" text-anchor="middle" font-family="Arial Rounded MT Bold,Arial Rounded MT,SF Pro Rounded,Helvetica Rounded,Nunito,Helvetica,Arial,sans-serif">Location</text>
<g transform="translate(339.0,581.0) scale(0.8611)"><g stroke="#141414" stroke-width="3" stroke-linejoin="round" fill="none"><rect x="9" y="33" width="20" height="29" fill="#8fb8d9"/><rect x="27" y="15" width="20" height="47" fill="#c3dcf0"/><rect x="45" y="26" width="18" height="36" fill="#8fb8d9"/><g fill="#f0b429" stroke="none"><rect x="14" y="39" width="4.5" height="5"/><rect x="21" y="39" width="4.5" height="5"/><rect x="14" y="48" width="4.5" height="5"/><rect x="21" y="48" width="4.5" height="5"/><rect x="32" y="23" width="4.5" height="5"/><rect x="39" y="23" width="4.5" height="5"/><rect x="32" y="33" width="4.5" height="5"/><rect x="39" y="33" width="4.5" height="5"/><rect x="32" y="43" width="4.5" height="5"/><rect x="39" y="43" width="4.5" height="5"/><rect x="50" y="33" width="4.5" height="5"/><rect x="56" y="33" width="4.5" height="5"/><rect x="50" y="43" width="4.5" height="5"/><rect x="56" y="43" width="4.5" height="5"/></g><path d="M5 62 h62" stroke-width="3.4"/></g></g>
<text x="370" y="662" font-size="15" fill="#141414" text-anchor="middle" font-family="Arial Rounded MT Bold,Arial Rounded MT,SF Pro Rounded,Helvetica Rounded,Nunito,Helvetica,Arial,sans-serif">Location</text>
<g transform="translate(475.0,581.0) scale(0.6944)"><g stroke="#141414" stroke-width="3" stroke-linejoin="round" stroke-linecap="round" fill="none"><path d="M17 11 h27 l12 12 v38 h-39 Z" fill="#ffffff"/><path d="M44 11 l12 12 h-12 z" fill="#d9e2ea"/><path d="M44 11 v12 h12"/><path d="M24 34 h24 M24 42 h24 M24 50 h15" stroke-width="2.3"/></g></g>
<text x="500" y="648" font-size="15" fill="#141414" text-anchor="middle" font-family="Arial Rounded MT Bold,Arial Rounded MT,SF Pro Rounded,Helvetica Rounded,Nunito,Helvetica,Arial,sans-serif">Letters</text>
<text x="500" y="666" font-size="15" fill="#141414" text-anchor="middle" font-family="Arial Rounded MT Bold,Arial Rounded MT,SF Pro Rounded,Helvetica Rounded,Nunito,Helvetica,Arial,sans-serif">&amp; Edicts</text>
<polygon points="652.0,471.0 596.0,471.0 596.0,465.0 574.0,476.0 596.0,487.0 596.0,481.0 652.0,481.0" fill="#e0564e" stroke="#b8433c" stroke-width="1.6" stroke-linejoin="round"/><polygon points="652.0,471.0 596.0,471.0 596.0,465.0 574.0,476.0 596.0,487.0 596.0,481.0 652.0,481.0" fill="url(#hx)"/>
<text x="613" y="458" font-size="15" fill="#e0564e" text-anchor="middle" font-family="Arial Rounded MT Bold,Arial Rounded MT,SF Pro Rounded,Helvetica Rounded,Nunito,Helvetica,Arial,sans-serif">context</text>
<polygon points="574.0,569.0 630.0,569.0 630.0,575.0 652.0,564.0 630.0,553.0 630.0,559.0 574.0,559.0" fill="#e0564e" stroke="#b8433c" stroke-width="1.6" stroke-linejoin="round"/><polygon points="574.0,569.0 630.0,569.0 630.0,575.0 652.0,564.0 630.0,553.0 630.0,559.0 574.0,559.0" fill="url(#hx)"/>
<text x="613" y="546" font-size="15" fill="#e0564e" text-anchor="middle" font-family="Arial Rounded MT Bold,Arial Rounded MT,SF Pro Rounded,Helvetica Rounded,Nunito,Helvetica,Arial,sans-serif">result</text>
<rect x="666" y="372" width="266" height="322" rx="16" fill="#faf8ff" stroke="#8b7fd4" stroke-width="3.4" stroke-dasharray="12 9" stroke-linecap="round"/>
<text x="799.0" y="406" font-size="21" fill="#141414" text-anchor="middle" font-family="Arial Rounded MT Bold,Arial Rounded MT,SF Pro Rounded,Helvetica Rounded,Nunito,Helvetica,Arial,sans-serif">Short-Term Memory</text>
<text x="799" y="436" font-size="16" fill="#141414" text-anchor="middle" font-family="Arial Rounded MT Bold,Arial Rounded MT,SF Pro Rounded,Helvetica Rounded,Nunito,Helvetica,Arial,sans-serif">Goal Stack</text>
<rect x="724.0" y="444" width="150" height="17" rx="8" fill="#e9e0fb" stroke="#7c4dd6" stroke-width="3"/><text x="799.0" y="458.5" font-size="16" fill="#141414" text-anchor="middle" font-family="Arial Rounded MT Bold,Arial Rounded MT,SF Pro Rounded,Helvetica Rounded,Nunito,Helvetica,Arial,sans-serif"></text>
<rect x="715.0" y="464" width="168" height="17" rx="8" fill="#e9e0fb" stroke="#7c4dd6" stroke-width="3"/><text x="799.0" y="478.5" font-size="16" fill="#141414" text-anchor="middle" font-family="Arial Rounded MT Bold,Arial Rounded MT,SF Pro Rounded,Helvetica Rounded,Nunito,Helvetica,Arial,sans-serif"></text>
<rect x="706.0" y="484" width="186" height="17" rx="8" fill="#e9e0fb" stroke="#7c4dd6" stroke-width="3"/><text x="799.0" y="498.5" font-size="16" fill="#141414" text-anchor="middle" font-family="Arial Rounded MT Bold,Arial Rounded MT,SF Pro Rounded,Helvetica Rounded,Nunito,Helvetica,Arial,sans-serif"></text>
<text x="799" y="524" font-size="16" fill="#141414" text-anchor="middle" font-family="Arial Rounded MT Bold,Arial Rounded MT,SF Pro Rounded,Helvetica Rounded,Nunito,Helvetica,Arial,sans-serif">Status</text>
<rect x="714" y="532" width="170" height="17" rx="8" fill="#eceff3" stroke="#7d8794" stroke-width="3"/><text x="799.0" y="546.5" font-size="16" fill="#141414" text-anchor="middle" font-family="Arial Rounded MT Bold,Arial Rounded MT,SF Pro Rounded,Helvetica Rounded,Nunito,Helvetica,Arial,sans-serif"></text>
<rect x="714" y="552" width="170" height="17" rx="8" fill="#eceff3" stroke="#7d8794" stroke-width="3"/><text x="799.0" y="566.5" font-size="16" fill="#141414" text-anchor="middle" font-family="Arial Rounded MT Bold,Arial Rounded MT,SF Pro Rounded,Helvetica Rounded,Nunito,Helvetica,Arial,sans-serif"></text>
<text x="799" y="592" font-size="15" fill="#141414" text-anchor="middle" font-family="Arial Rounded MT Bold,Arial Rounded MT,SF Pro Rounded,Helvetica Rounded,Nunito,Helvetica,Arial,sans-serif">Action–Result Cache</text>
<rect x="700" y="600" width="92" height="17" rx="8" fill="#d3f0ee" stroke="#12857e" stroke-width="3"/><text x="746.0" y="614.5" font-size="16" fill="#141414" text-anchor="middle" font-family="Arial Rounded MT Bold,Arial Rounded MT,SF Pro Rounded,Helvetica Rounded,Nunito,Helvetica,Arial,sans-serif"></text>
<rect x="806" y="600" width="92" height="17" rx="8" fill="#d3f0ee" stroke="#12857e" stroke-width="3"/><text x="852.0" y="614.5" font-size="16" fill="#141414" text-anchor="middle" font-family="Arial Rounded MT Bold,Arial Rounded MT,SF Pro Rounded,Helvetica Rounded,Nunito,Helvetica,Arial,sans-serif"></text>
<rect x="700" y="620" width="92" height="17" rx="8" fill="#d3f0ee" stroke="#12857e" stroke-width="3"/><text x="746.0" y="634.5" font-size="16" fill="#141414" text-anchor="middle" font-family="Arial Rounded MT Bold,Arial Rounded MT,SF Pro Rounded,Helvetica Rounded,Nunito,Helvetica,Arial,sans-serif"></text>
<rect x="806" y="620" width="92" height="17" rx="8" fill="#d3f0ee" stroke="#12857e" stroke-width="3"/><text x="852.0" y="634.5" font-size="16" fill="#141414" text-anchor="middle" font-family="Arial Rounded MT Bold,Arial Rounded MT,SF Pro Rounded,Helvetica Rounded,Nunito,Helvetica,Arial,sans-serif"></text>
<rect x="700" y="640" width="92" height="17" rx="8" fill="#d3f0ee" stroke="#12857e" stroke-width="3"/><text x="746.0" y="654.5" font-size="16" fill="#141414" text-anchor="middle" font-family="Arial Rounded MT Bold,Arial Rounded MT,SF Pro Rounded,Helvetica Rounded,Nunito,Helvetica,Arial,sans-serif"></text>
<rect x="806" y="640" width="92" height="17" rx="8" fill="#d3f0ee" stroke="#12857e" stroke-width="3"/><text x="852.0" y="654.5" font-size="16" fill="#141414" text-anchor="middle" font-family="Arial Rounded MT Bold,Arial Rounded MT,SF Pro Rounded,Helvetica Rounded,Nunito,Helvetica,Arial,sans-serif"></text>
<text x="799" y="678" font-size="13" fill="#5b6470" text-anchor="middle" font-family="Arial Rounded MT Bold,Arial Rounded MT,SF Pro Rounded,Helvetica Rounded,Nunito,Helvetica,Arial,sans-serif">20 most recent pairs</text>
<polygon points="1024.0,469.5 973.0,469.5 973.0,462.5 946.0,476.0 973.0,489.5 973.0,482.5 1024.0,482.5" fill="#e0564e" stroke="#b8433c" stroke-width="1.6" stroke-linejoin="round"/><polygon points="1024.0,469.5 973.0,469.5 973.0,462.5 946.0,476.0 973.0,489.5 973.0,482.5 1024.0,482.5" fill="url(#hx)"/>
<text x="985" y="458" font-size="16" fill="#e0564e" text-anchor="middle" font-family="Arial Rounded MT Bold,Arial Rounded MT,SF Pro Rounded,Helvetica Rounded,Nunito,Helvetica,Arial,sans-serif">recall</text>
<polygon points="946.0,570.5 997.0,570.5 997.0,577.5 1024.0,564.0 997.0,550.5 997.0,557.5 946.0,557.5" fill="#e0564e" stroke="#b8433c" stroke-width="1.6" stroke-linejoin="round"/><polygon points="946.0,570.5 997.0,570.5 997.0,577.5 1024.0,564.0 997.0,550.5 997.0,557.5 946.0,557.5" fill="url(#hx)"/>
<text x="985" y="546" font-size="16" fill="#e0564e" text-anchor="middle" font-family="Arial Rounded MT Bold,Arial Rounded MT,SF Pro Rounded,Helvetica Rounded,Nunito,Helvetica,Arial,sans-serif">remember</text>
<text x="985" y="600" font-size="13" fill="#5b6470" text-anchor="middle" font-family="Arial Rounded MT Bold,Arial Rounded MT,SF Pro Rounded,Helvetica Rounded,Nunito,Helvetica,Arial,sans-serif">owner-</text>
<text x="985" y="616" font-size="13" fill="#5b6470" text-anchor="middle" font-family="Arial Rounded MT Bold,Arial Rounded MT,SF Pro Rounded,Helvetica Rounded,Nunito,Helvetica,Arial,sans-serif">scoped</text>
<rect x="1038" y="372" width="224" height="322" rx="16" fill="#f4faff" stroke="#3f7fc4" stroke-width="3.4" stroke-dasharray="12 9" stroke-linecap="round"/>
<text x="1150.0" y="406" font-size="21" fill="#141414" text-anchor="middle" font-family="Arial Rounded MT Bold,Arial Rounded MT,SF Pro Rounded,Helvetica Rounded,Nunito,Helvetica,Arial,sans-serif">Long-Term Memory</text>
<g transform="translate(1106.0,448.0) scale(1.2222)"><g stroke="#141414" stroke-width="3" stroke-linejoin="round" fill="none"><path d="M13 19 v34 a23 8 0 0 0 46 0 v-34" fill="#7fb6e6"/><ellipse cx="36" cy="19" rx="23" ry="8" fill="#bcd9f2"/><path d="M13 31 a23 8 0 0 0 46 0 M13 42 a23 8 0 0 0 46 0" stroke-width="2.4"/></g></g>
<text x="1150" y="578" font-size="17" fill="#141414" text-anchor="middle" font-family="Arial Rounded MT Bold,Arial Rounded MT,SF Pro Rounded,Helvetica Rounded,Nunito,Helvetica,Arial,sans-serif">One Store,</text>
<text x="1150" y="600" font-size="17" fill="#141414" text-anchor="middle" font-family="Arial Rounded MT Bold,Arial Rounded MT,SF Pro Rounded,Helvetica Rounded,Nunito,Helvetica,Arial,sans-serif">All Agents</text>
<text x="1150" y="634" font-size="14" fill="#5b6470" text-anchor="middle" font-family="Arial Rounded MT Bold,Arial Rounded MT,SF Pro Rounded,Helvetica Rounded,Nunito,Helvetica,Arial,sans-serif">structure differs</text>
<text x="1150" y="652" font-size="14" fill="#5b6470" text-anchor="middle" font-family="Arial Rounded MT Bold,Arial Rounded MT,SF Pro Rounded,Helvetica Rounded,Nunito,Helvetica,Arial,sans-serif">per backend</text>
</svg>